<mxfile host="app.diagrams.net" modified="2022-08-17T16:17:29.308Z" agent="5.0 (Windows NT 10.0; Win64; x64) AppleWebKit/537.36 (KHTML, like Gecko) Chrome/104.0.0.0 Safari/537.36" etag="RPuJZ4RvJfmUzqKCCBm8" version="16.6.6" type="github">
  <diagram id="SkXJHIa8LmGTKJJ-aW58" name="第 1 页">
    <mxGraphModel dx="1209" dy="741" grid="1" gridSize="10" guides="1" tooltips="1" connect="1" arrows="1" fold="1" page="1" pageScale="1" pageWidth="827" pageHeight="1169" math="0" shadow="0">
      <root>
        <mxCell id="0" />
        <mxCell id="1" parent="0" />
        <mxCell id="TMQKKduqAZuN0sdKVgVv-51" value="" style="rounded=0;whiteSpace=wrap;html=1;dashed=1;" vertex="1" parent="1">
          <mxGeometry x="60" y="750" width="630" height="110" as="geometry" />
        </mxCell>
        <mxCell id="TMQKKduqAZuN0sdKVgVv-1" value="redis集群" style="rounded=0;whiteSpace=wrap;html=1;sketch=1;points=[[0,0,0,0,0],[0,0.25,0,0,0],[0,0.5,0,0,0],[0,0.75,0,0,0],[0,1,0,0,0],[0.25,0,0,0,0],[0.25,1,0,0,0],[0.5,0,0,0,0],[0.5,1,0,0,0],[0.75,0,0,0,0],[0.75,1,0,0,0],[1,0,0,0,0],[1,0.25,0,0,0],[1,0.5,0,0,0],[1,0.75,0,0,0],[1,1,0,0,0]];" vertex="1" parent="1">
          <mxGeometry x="199" y="220" width="120" height="60" as="geometry" />
        </mxCell>
        <mxCell id="TMQKKduqAZuN0sdKVgVv-2" value="" style="edgeStyle=orthogonalEdgeStyle;sketch=1;orthogonalLoop=1;jettySize=auto;html=1;entryX=1;entryY=0.5;entryDx=0;entryDy=0;exitX=0.5;exitY=1;exitDx=0;exitDy=0;" edge="1" parent="1" source="TMQKKduqAZuN0sdKVgVv-9" target="TMQKKduqAZuN0sdKVgVv-6">
          <mxGeometry relative="1" as="geometry" />
        </mxCell>
        <mxCell id="TMQKKduqAZuN0sdKVgVv-3" value="同步更新" style="edgeLabel;html=1;align=center;verticalAlign=middle;resizable=0;points=[];" vertex="1" connectable="0" parent="TMQKKduqAZuN0sdKVgVv-2">
          <mxGeometry x="0.2936" y="-1" relative="1" as="geometry">
            <mxPoint x="46" y="1" as="offset" />
          </mxGeometry>
        </mxCell>
        <mxCell id="TMQKKduqAZuN0sdKVgVv-4" value="redis集群" style="rounded=0;whiteSpace=wrap;html=1;sketch=1;" vertex="1" parent="1">
          <mxGeometry x="399" y="220" width="120" height="60" as="geometry" />
        </mxCell>
        <mxCell id="TMQKKduqAZuN0sdKVgVv-6" value="redis集群" style="rounded=0;whiteSpace=wrap;html=1;sketch=1;" vertex="1" parent="1">
          <mxGeometry x="299" y="390" width="120" height="60" as="geometry" />
        </mxCell>
        <mxCell id="TMQKKduqAZuN0sdKVgVv-7" value="" style="endArrow=classic;html=1;sketch=1;entryX=0.5;entryY=0;entryDx=0;entryDy=0;edgeStyle=orthogonalEdgeStyle;" edge="1" parent="1" target="TMQKKduqAZuN0sdKVgVv-6">
          <mxGeometry width="50" height="50" relative="1" as="geometry">
            <mxPoint x="269" y="280" as="sourcePoint" />
            <mxPoint x="319" y="230" as="targetPoint" />
            <Array as="points">
              <mxPoint x="269" y="330" />
              <mxPoint x="359" y="330" />
            </Array>
          </mxGeometry>
        </mxCell>
        <mxCell id="TMQKKduqAZuN0sdKVgVv-8" value="" style="endArrow=classic;html=1;sketch=1;exitX=0.5;exitY=1;exitDx=0;exitDy=0;edgeStyle=orthogonalEdgeStyle;" edge="1" parent="1" source="TMQKKduqAZuN0sdKVgVv-4" target="TMQKKduqAZuN0sdKVgVv-6">
          <mxGeometry width="50" height="50" relative="1" as="geometry">
            <mxPoint x="279" y="290" as="sourcePoint" />
            <mxPoint x="359" y="360" as="targetPoint" />
            <Array as="points">
              <mxPoint x="459" y="330" />
              <mxPoint x="359" y="330" />
            </Array>
          </mxGeometry>
        </mxCell>
        <mxCell id="TMQKKduqAZuN0sdKVgVv-36" style="edgeStyle=orthogonalEdgeStyle;rounded=0;orthogonalLoop=1;jettySize=auto;html=1;entryX=1;entryY=0.5;entryDx=0;entryDy=0;exitX=0.5;exitY=1;exitDx=0;exitDy=0;entryPerimeter=0;" edge="1" parent="1" source="TMQKKduqAZuN0sdKVgVv-9" target="TMQKKduqAZuN0sdKVgVv-37">
          <mxGeometry relative="1" as="geometry">
            <mxPoint x="419" y="555" as="targetPoint" />
          </mxGeometry>
        </mxCell>
        <mxCell id="TMQKKduqAZuN0sdKVgVv-9" value="后台修改" style="whiteSpace=wrap;html=1;rounded=0;sketch=1;" vertex="1" parent="1">
          <mxGeometry x="599" y="220" width="120" height="60" as="geometry" />
        </mxCell>
        <mxCell id="TMQKKduqAZuN0sdKVgVv-42" style="edgeStyle=orthogonalEdgeStyle;rounded=0;orthogonalLoop=1;jettySize=auto;html=1;entryX=0.5;entryY=0;entryDx=0;entryDy=0;exitX=0.5;exitY=1;exitDx=0;exitDy=0;exitPerimeter=0;" edge="1" parent="1" source="TMQKKduqAZuN0sdKVgVv-37" target="TMQKKduqAZuN0sdKVgVv-38">
          <mxGeometry relative="1" as="geometry" />
        </mxCell>
        <mxCell id="TMQKKduqAZuN0sdKVgVv-43" style="edgeStyle=orthogonalEdgeStyle;rounded=0;orthogonalLoop=1;jettySize=auto;html=1;entryX=0.538;entryY=0.667;entryDx=0;entryDy=0;entryPerimeter=0;" edge="1" parent="1" source="TMQKKduqAZuN0sdKVgVv-37" target="TMQKKduqAZuN0sdKVgVv-39">
          <mxGeometry relative="1" as="geometry" />
        </mxCell>
        <mxCell id="TMQKKduqAZuN0sdKVgVv-44" style="edgeStyle=orthogonalEdgeStyle;rounded=0;orthogonalLoop=1;jettySize=auto;html=1;entryX=0.5;entryY=0;entryDx=0;entryDy=0;exitX=0.5;exitY=1;exitDx=0;exitDy=0;exitPerimeter=0;" edge="1" parent="1" source="TMQKKduqAZuN0sdKVgVv-37" target="TMQKKduqAZuN0sdKVgVv-40">
          <mxGeometry relative="1" as="geometry" />
        </mxCell>
        <mxCell id="TMQKKduqAZuN0sdKVgVv-37" value="MQ" style="shape=cylinder3;whiteSpace=wrap;html=1;boundedLbl=1;backgroundOutline=1;size=15;" vertex="1" parent="1">
          <mxGeometry x="329" y="560" width="71" height="100" as="geometry" />
        </mxCell>
        <mxCell id="TMQKKduqAZuN0sdKVgVv-49" style="edgeStyle=orthogonalEdgeStyle;rounded=0;orthogonalLoop=1;jettySize=auto;html=1;entryX=0;entryY=0.5;entryDx=0;entryDy=0;exitX=0;exitY=0.5;exitDx=0;exitDy=0;" edge="1" parent="1" source="TMQKKduqAZuN0sdKVgVv-51" target="TMQKKduqAZuN0sdKVgVv-6">
          <mxGeometry relative="1" as="geometry">
            <mxPoint x="170" y="480" as="targetPoint" />
          </mxGeometry>
        </mxCell>
        <mxCell id="TMQKKduqAZuN0sdKVgVv-50" value="初始化" style="edgeLabel;html=1;align=center;verticalAlign=middle;resizable=0;points=[];" vertex="1" connectable="0" parent="TMQKKduqAZuN0sdKVgVv-49">
          <mxGeometry x="-0.087" y="-2" relative="1" as="geometry">
            <mxPoint as="offset" />
          </mxGeometry>
        </mxCell>
        <mxCell id="TMQKKduqAZuN0sdKVgVv-38" value="应用" style="whiteSpace=wrap;html=1;rounded=0;sketch=1;" vertex="1" parent="1">
          <mxGeometry x="110" y="770" width="120" height="60" as="geometry" />
        </mxCell>
        <mxCell id="TMQKKduqAZuN0sdKVgVv-39" value="&lt;span&gt;应用&lt;/span&gt;" style="whiteSpace=wrap;html=1;rounded=0;sketch=1;" vertex="1" parent="1">
          <mxGeometry x="300" y="770" width="120" height="60" as="geometry" />
        </mxCell>
        <mxCell id="TMQKKduqAZuN0sdKVgVv-40" value="&lt;span&gt;应用&lt;/span&gt;" style="whiteSpace=wrap;html=1;rounded=0;sketch=1;" vertex="1" parent="1">
          <mxGeometry x="519" y="770" width="120" height="60" as="geometry" />
        </mxCell>
        <mxCell id="TMQKKduqAZuN0sdKVgVv-46" style="edgeStyle=orthogonalEdgeStyle;rounded=0;orthogonalLoop=1;jettySize=auto;html=1;entryX=0.5;entryY=1;entryDx=0;entryDy=0;exitX=0.5;exitY=0;exitDx=0;exitDy=0;" edge="1" parent="1" source="TMQKKduqAZuN0sdKVgVv-41" target="TMQKKduqAZuN0sdKVgVv-38">
          <mxGeometry relative="1" as="geometry">
            <Array as="points">
              <mxPoint x="360" y="900" />
              <mxPoint x="170" y="900" />
            </Array>
          </mxGeometry>
        </mxCell>
        <mxCell id="TMQKKduqAZuN0sdKVgVv-47" style="edgeStyle=orthogonalEdgeStyle;rounded=0;orthogonalLoop=1;jettySize=auto;html=1;exitX=0.5;exitY=0;exitDx=0;exitDy=0;entryX=0.5;entryY=1;entryDx=0;entryDy=0;" edge="1" parent="1" source="TMQKKduqAZuN0sdKVgVv-41" target="TMQKKduqAZuN0sdKVgVv-39">
          <mxGeometry relative="1" as="geometry" />
        </mxCell>
        <mxCell id="TMQKKduqAZuN0sdKVgVv-48" style="edgeStyle=orthogonalEdgeStyle;rounded=0;orthogonalLoop=1;jettySize=auto;html=1;entryX=0.5;entryY=1;entryDx=0;entryDy=0;exitX=0.5;exitY=0;exitDx=0;exitDy=0;" edge="1" parent="1" source="TMQKKduqAZuN0sdKVgVv-41" target="TMQKKduqAZuN0sdKVgVv-40">
          <mxGeometry relative="1" as="geometry">
            <Array as="points">
              <mxPoint x="360" y="900" />
              <mxPoint x="579" y="900" />
            </Array>
          </mxGeometry>
        </mxCell>
        <mxCell id="TMQKKduqAZuN0sdKVgVv-41" value="&lt;span&gt;客户端&lt;/span&gt;" style="whiteSpace=wrap;html=1;rounded=0;sketch=1;" vertex="1" parent="1">
          <mxGeometry x="300" y="960" width="120" height="60" as="geometry" />
        </mxCell>
      </root>
    </mxGraphModel>
  </diagram>
</mxfile>
